<svg width="20" height="20" viewBox="0 0 20 20" fill="none" xmlns="http://www.w3.org/2000/svg">
<path d="M12.5 10.3125C12.4171 10.3125 12.3376 10.3454 12.279 10.404C12.2204 10.4626 12.1875 10.5421 12.1875 10.625V15H8.12501V5.31251C8.12503 5.25992 8.11178 5.20818 8.08649 5.16208C8.0612 5.11598 8.02468 5.077 7.98032 5.04876L2.01064 1.25001H12.1875V6.25001C12.1875 6.33289 12.2204 6.41238 12.279 6.47098C12.3376 6.52959 12.4171 6.56251 12.5 6.56251C12.5829 6.56251 12.6624 6.52959 12.721 6.47098C12.7796 6.41238 12.8125 6.33289 12.8125 6.25001V0.93751C12.8125 0.85463 12.7796 0.775144 12.721 0.716539C12.6624 0.657934 12.5829 0.62501 12.5 0.62501H0.93751C0.896379 0.624677 0.855593 0.632533 0.817529 0.648119C0.779464 0.663706 0.744882 0.686712 0.715797 0.715797C0.686712 0.744882 0.663706 0.779464 0.648119 0.817529C0.632533 0.855593 0.624677 0.896379 0.62501 0.93751V15.3125C0.625 15.3687 0.640114 15.4238 0.668764 15.472C0.697413 15.5203 0.738541 15.56 0.787823 15.5869L7.66282 19.3369C7.71042 19.3629 7.76396 19.376 7.81817 19.375C7.87238 19.374 7.92541 19.359 7.97203 19.3313C8.01866 19.3036 8.05728 19.2643 8.0841 19.2171C8.11092 19.17 8.12502 19.1167 8.12501 19.0625V15.625H12.5C12.5829 15.625 12.6624 15.5921 12.721 15.5335C12.7796 15.4749 12.8125 15.3954 12.8125 15.3125V10.625C12.8125 10.5421 12.7796 10.4626 12.721 10.404C12.6624 10.3454 12.5829 10.3125 12.5 10.3125Z" fill="white"/>
<path d="M19.575 8.19738L15.825 5.07238C15.7794 5.03438 15.7239 5.01016 15.665 5.00257C15.6061 4.99497 15.5462 5.00431 15.4925 5.02949C15.4387 5.05468 15.3932 5.09466 15.3613 5.14476C15.3295 5.19486 15.3125 5.253 15.3125 5.31238V7.49988H10.3125C10.0639 7.49988 9.8254 7.59865 9.64959 7.77447C9.47377 7.95028 9.375 8.18874 9.375 8.43738C9.375 8.68602 9.47377 8.92448 9.64959 9.10029C9.8254 9.27611 10.0639 9.37488 10.3125 9.37488H15.3125V11.5624C15.3125 11.6218 15.3295 11.6799 15.3613 11.73C15.3932 11.7801 15.4387 11.8201 15.4925 11.8453C15.5462 11.8705 15.6061 11.8798 15.665 11.8722C15.7239 11.8646 15.7794 11.8404 15.825 11.8024L19.575 8.67738C19.6102 8.64805 19.6385 8.61136 19.6579 8.56988C19.6773 8.52841 19.6874 8.48318 19.6874 8.43738C19.6874 8.39159 19.6773 8.34636 19.6579 8.30488C19.6385 8.26341 19.6102 8.22671 19.575 8.19738Z" fill="white"/>
</svg>
