<svg width="10" height="10" viewBox="0 0 10 10" fill="none" xmlns="http://www.w3.org/2000/svg">
<g clip-path="url(#clip0)">
<path d="M4.375 8.75C1.9625 8.75 0 6.7875 0 4.375C0 1.9625 1.9625 0 4.375 0C6.7875 0 8.75 1.9625 8.75 4.375C8.75 6.7875 6.7875 8.75 4.375 8.75ZM4.375 1.25C2.65188 1.25 1.25 2.65188 1.25 4.375C1.25 6.09812 2.65188 7.5 4.375 7.5C6.09812 7.5 7.5 6.09812 7.5 4.375C7.5 2.65188 6.09812 1.25 4.375 1.25Z" fill="#28579A"/>
<path d="M9.81687 8.93313L8.32125 7.4375C8.06438 7.76813 7.76812 8.06438 7.4375 8.32125L8.93313 9.81688C9.055 9.93875 9.215 10 9.375 10C9.535 10 9.695 9.93875 9.81687 9.81688C10.0613 9.5725 10.0613 9.1775 9.81687 8.93313Z" fill="#28579A"/>
</g>
<defs>
<clipPath id="clip0">
<rect width="10" height="10" fill="white"/>
</clipPath>
</defs>
</svg>
