<svg width="20" height="20" viewBox="0 0 20 20" fill="none" xmlns="http://www.w3.org/2000/svg"><path d="M12.5 10.313a.313.313 0 0 0-.313.312V15H8.125V5.313a.313.313 0 0 0-.145-.264L2.01 1.25h10.178v5a.312.312 0 1 0 .624 0V.938A.312.312 0 0 0 12.5.625H.938a.31.31 0 0 0-.313.313v14.375a.312.312 0 0 0 .163.274l6.875 3.75a.312.312 0 0 0 .462-.274v-3.438H12.5a.313.313 0 0 0 .313-.313v-4.687a.313.313 0 0 0-.313-.313z" fill="#fff"/><path d="M19.575 8.197l-3.75-3.125a.312.312 0 0 0-.512.24V7.5h-5a.938.938 0 0 0 0 1.875h5v2.187a.313.313 0 0 0 .512.24l3.75-3.125a.312.312 0 0 0 0-.48z" fill="#fff"/></svg>