<svg width="10" height="10" viewBox="0 0 10 10" fill="none" xmlns="http://www.w3.org/2000/svg"><g clip-path="url(#a)" fill="#28579A"><path d="M4.375 8.75A4.38 4.38 0 0 1 0 4.375 4.38 4.38 0 0 1 4.375 0 4.38 4.38 0 0 1 8.75 4.375 4.38 4.38 0 0 1 4.375 8.75zm0-7.5A3.129 3.129 0 0 0 1.25 4.375 3.129 3.129 0 0 0 4.375 7.5 3.129 3.129 0 0 0 7.5 4.375 3.129 3.129 0 0 0 4.375 1.25zm5.442 7.683L8.32 7.438c-.257.33-.553.626-.883.883l1.495 1.496a.623.623 0 0 0 .884 0 .624.624 0 0 0 0-.884z"/></g><defs><clipPath id="a"><path fill="#fff" d="M0 0h10v10H0z"/></clipPath></defs></svg>